<?xml version="1.0" encoding="UTF-8"?>
<svg xmlns="http://www.w3.org/2000/svg" xmlns:xlink="http://www.w3.org/1999/xlink" width="150px" height="85px" viewBox="0 0 150 85" version="1.1">
<defs>
<clipPath id="clip1">
  <path d="M 8.816406 6.609375 L 141.390625 6.609375 L 141.390625 78.59375 L 8.816406 78.59375 Z M 8.816406 6.609375 "/>
</clipPath>
<clipPath id="clip2">
  <path d="M 75.066406 6.609375 C 38.472656 6.609375 8.816406 22.726562 8.816406 42.601562 C 8.816406 62.480469 38.472656 78.59375 75.066406 78.59375 C 111.660156 78.59375 141.316406 62.480469 141.316406 42.601562 C 141.316406 22.726562 111.660156 6.609375 75.066406 6.609375 Z M 75.066406 6.609375 "/>
</clipPath>
<clipPath id="clip3">
  <path d="M 44.695312 12.726562 L 104.371094 12.726562 L 104.371094 72.480469 L 44.695312 72.480469 Z M 44.695312 12.726562 "/>
</clipPath>
<clipPath id="clip4">
  <path d="M 74.527344 12.726562 C 58.046875 12.726562 44.695312 26.105469 44.695312 42.601562 C 44.695312 59.101562 58.046875 72.480469 74.527344 72.480469 C 91.015625 72.480469 104.371094 59.101562 104.371094 42.601562 C 104.371094 26.105469 91.015625 12.726562 74.527344 12.726562 Z M 74.527344 12.726562 "/>
</clipPath>
<clipPath id="clip5">
  <path d="M 47.339844 24.679688 L 101.753906 24.679688 L 101.753906 60.527344 L 47.339844 60.527344 Z M 47.339844 24.679688 "/>
</clipPath>
<clipPath id="clip6">
  <path d="M 74.527344 24.679688 L 101.726562 42.601562 L 74.527344 60.527344 L 47.339844 42.601562 Z M 74.527344 24.679688 "/>
</clipPath>
<clipPath id="clip7">
  <path d="M 63 31.0625 L 86.054688 31.0625 L 86.054688 54.144531 L 63 54.144531 Z M 63 31.0625 "/>
</clipPath>
<clipPath id="clip8">
  <path d="M 74.527344 31.0625 C 68.167969 31.0625 63 36.226562 63 42.601562 C 63 48.976562 68.167969 54.144531 74.527344 54.144531 C 80.894531 54.144531 86.054688 48.976562 86.054688 42.601562 C 86.054688 36.226562 80.894531 31.0625 74.527344 31.0625 Z M 74.527344 31.0625 "/>
</clipPath>
<clipPath id="clip9">
  <path d="M 76.976562 31.0625 L 84.285156 31.0625 L 84.285156 38.382812 L 76.976562 38.382812 Z M 76.976562 31.0625 "/>
</clipPath>
<clipPath id="clip10">
  <path d="M 80.632812 31.0625 C 78.613281 31.0625 76.976562 32.703125 76.976562 34.722656 C 76.976562 36.746094 78.613281 38.382812 80.632812 38.382812 C 82.648438 38.382812 84.285156 36.746094 84.285156 34.722656 C 84.285156 32.703125 82.648438 31.0625 80.632812 31.0625 Z M 80.632812 31.0625 "/>
</clipPath>
<clipPath id="clip11">
  <path d="M 0 0.355469 L 148.945312 0.355469 L 148.945312 84 L 0 84 Z M 0 0.355469 "/>
</clipPath>
<clipPath id="clip12">
  <path d="M 44.695312 12.726562 L 104.371094 12.726562 L 104.371094 72.480469 L 44.695312 72.480469 Z M 44.695312 12.726562 "/>
</clipPath>
<clipPath id="clip13">
  <path d="M 74.527344 12.726562 C 58.046875 12.726562 44.695312 26.105469 44.695312 42.601562 C 44.695312 59.101562 58.046875 72.480469 74.527344 72.480469 C 91.015625 72.480469 104.371094 59.101562 104.371094 42.601562 C 104.371094 26.105469 91.015625 12.726562 74.527344 12.726562 Z M 74.527344 12.726562 "/>
</clipPath>
<clipPath id="clip14">
  <path d="M 47.339844 24.679688 L 101.753906 24.679688 L 101.753906 60.527344 L 47.339844 60.527344 Z M 47.339844 24.679688 "/>
</clipPath>
<clipPath id="clip15">
  <path d="M 74.527344 24.679688 L 101.726562 42.601562 L 74.527344 60.527344 L 47.339844 42.601562 Z M 74.527344 24.679688 "/>
</clipPath>
<clipPath id="clip16">
  <path d="M 63 31.0625 L 86.054688 31.0625 L 86.054688 54.144531 L 63 54.144531 Z M 63 31.0625 "/>
</clipPath>
<clipPath id="clip17">
  <path d="M 74.527344 31.0625 C 68.167969 31.0625 63 36.226562 63 42.601562 C 63 48.976562 68.167969 54.144531 74.527344 54.144531 C 80.894531 54.144531 86.054688 48.976562 86.054688 42.601562 C 86.054688 36.226562 80.894531 31.0625 74.527344 31.0625 Z M 74.527344 31.0625 "/>
</clipPath>
<clipPath id="clip18">
  <path d="M 76.976562 31.0625 L 84.285156 31.0625 L 84.285156 38.382812 L 76.976562 38.382812 Z M 76.976562 31.0625 "/>
</clipPath>
<clipPath id="clip19">
  <path d="M 80.632812 31.0625 C 78.613281 31.0625 76.976562 32.703125 76.976562 34.722656 C 76.976562 36.746094 78.613281 38.382812 80.632812 38.382812 C 82.648438 38.382812 84.285156 36.746094 84.285156 34.722656 C 84.285156 32.703125 82.648438 31.0625 80.632812 31.0625 Z M 80.632812 31.0625 "/>
</clipPath>
</defs>
<g id="surface1">
<g clip-path="url(#clip1)" clip-rule="nonzero">
<g clip-path="url(#clip2)" clip-rule="nonzero">
<path style=" stroke:none;fill-rule:nonzero;fill:rgb(100%,100%,100%);fill-opacity:1;" d="M 8.816406 6.609375 L 141.390625 6.609375 L 141.390625 78.59375 L 8.816406 78.59375 Z M 8.816406 6.609375 "/>
</g>
</g>
<g clip-path="url(#clip3)" clip-rule="nonzero">
<g clip-path="url(#clip4)" clip-rule="nonzero">
<path style=" stroke:none;fill-rule:nonzero;fill:rgb(2.352941%,47.058824%,21.568628%);fill-opacity:1;" d="M 44.695312 12.726562 L 104.371094 12.726562 L 104.371094 72.480469 L 44.695312 72.480469 Z M 44.695312 12.726562 "/>
</g>
</g>
<g clip-path="url(#clip5)" clip-rule="nonzero">
<g clip-path="url(#clip6)" clip-rule="nonzero">
<path style=" stroke:none;fill-rule:nonzero;fill:rgb(100%,78.039217%,17.647059%);fill-opacity:1;" d="M 47.339844 24.679688 L 101.753906 24.679688 L 101.753906 60.527344 L 47.339844 60.527344 Z M 47.339844 24.679688 "/>
</g>
</g>
<g clip-path="url(#clip7)" clip-rule="nonzero">
<g clip-path="url(#clip8)" clip-rule="nonzero">
<path style=" stroke:none;fill-rule:nonzero;fill:rgb(0%,27.843139%,67.058825%);fill-opacity:1;" d="M 63 31.0625 L 86.054688 31.0625 L 86.054688 54.144531 L 63 54.144531 Z M 63 31.0625 "/>
</g>
</g>
<g clip-path="url(#clip9)" clip-rule="nonzero">
<g clip-path="url(#clip10)" clip-rule="nonzero">
<path style=" stroke:none;fill-rule:nonzero;fill:rgb(100%,100%,100%);fill-opacity:1;" d="M 76.976562 31.0625 L 84.285156 31.0625 L 84.285156 38.382812 L 76.976562 38.382812 Z M 76.976562 31.0625 "/>
</g>
</g>
<g clip-path="url(#clip11)" clip-rule="nonzero">
<path style=" stroke:none;fill-rule:nonzero;fill:rgb(0%,27.843139%,67.058825%);fill-opacity:1;" d="M 74.285156 0.78125 C 45.851562 0.78125 19.6875 13.753906 2.5 36.375 C -0.183594 39.894531 -0.183594 44.816406 2.5 48.335938 C 19.6875 70.957031 45.851562 83.9375 74.285156 83.9375 C 102.710938 83.9375 128.882812 70.957031 146.070312 48.34375 C 148.753906 44.816406 148.753906 39.902344 146.070312 36.375 C 128.882812 13.753906 102.710938 0.78125 74.285156 0.78125 Z M 138.246094 42.375 C 122.929688 62.523438 99.617188 74.085938 74.285156 74.085938 C 48.953125 74.085938 25.640625 62.523438 10.324219 42.34375 C 25.640625 22.1875 48.953125 10.632812 74.285156 10.632812 C 99.617188 10.632812 122.929688 22.1875 138.246094 42.34375 C 138.246094 42.34375 138.246094 42.367188 138.246094 42.375 Z M 138.246094 42.375 "/>
</g>
<path style=" stroke:none;fill-rule:nonzero;fill:rgb(0%,27.843139%,67.058825%);fill-opacity:1;" d="M 74.285156 13.523438 C 58.402344 13.523438 45.480469 26.460938 45.480469 42.359375 C 45.480469 58.253906 58.402344 71.1875 74.285156 71.1875 C 90.160156 71.1875 103.082031 58.253906 103.082031 42.359375 C 103.082031 26.460938 90.160156 13.523438 74.285156 13.523438 Z M 74.285156 61.335938 C 63.828125 61.335938 55.320312 52.824219 55.320312 42.359375 C 55.320312 31.890625 63.828125 23.375 74.285156 23.375 C 84.734375 23.375 93.242188 31.890625 93.242188 42.359375 C 93.242188 52.824219 84.734375 61.335938 74.285156 61.335938 Z M 74.285156 61.335938 "/>
<g clip-path="url(#clip12)" clip-rule="nonzero">
<g clip-path="url(#clip13)" clip-rule="nonzero">
<path style=" stroke:none;fill-rule:nonzero;fill:rgb(2.352941%,47.058824%,21.568628%);fill-opacity:1;" d="M 44.695312 12.726562 L 104.371094 12.726562 L 104.371094 72.480469 L 44.695312 72.480469 Z M 44.695312 12.726562 "/>
</g>
</g>
<g clip-path="url(#clip14)" clip-rule="nonzero">
<g clip-path="url(#clip15)" clip-rule="nonzero">
<path style=" stroke:none;fill-rule:nonzero;fill:rgb(100%,78.039217%,17.647059%);fill-opacity:1;" d="M 47.339844 24.679688 L 101.753906 24.679688 L 101.753906 60.527344 L 47.339844 60.527344 Z M 47.339844 24.679688 "/>
</g>
</g>
<g clip-path="url(#clip16)" clip-rule="nonzero">
<g clip-path="url(#clip17)" clip-rule="nonzero">
<path style=" stroke:none;fill-rule:nonzero;fill:rgb(0%,27.843139%,67.058825%);fill-opacity:1;" d="M 63 31.0625 L 86.054688 31.0625 L 86.054688 54.144531 L 63 54.144531 Z M 63 31.0625 "/>
</g>
</g>
<g clip-path="url(#clip18)" clip-rule="nonzero">
<g clip-path="url(#clip19)" clip-rule="nonzero">
<path style=" stroke:none;fill-rule:nonzero;fill:rgb(100%,100%,100%);fill-opacity:1;" d="M 76.976562 31.0625 L 84.285156 31.0625 L 84.285156 38.382812 L 76.976562 38.382812 Z M 76.976562 31.0625 "/>
</g>
</g>
</g>
</svg>
