<svg xmlns="http://www.w3.org/2000/svg" xmlns:xlink="http://www.w3.org/1999/xlink" width="106" zoomAndPan="magnify" viewBox="0 0 79.5 44.999999" height="60" preserveAspectRatio="xMidYMid meet" version="1.0"><defs><clipPath id="c0329091ae"><path d="M 0 0.1875 L 79 0.1875 L 79 44.859375 L 0 44.859375 Z M 0 0.1875 " clip-rule="nonzero"/></clipPath><clipPath id="cf4c7cb166"><path d="M 23.6875 6.738281 L 55.316406 6.738281 L 55.316406 38.371094 L 23.6875 38.371094 Z M 23.6875 6.738281 " clip-rule="nonzero"/></clipPath><clipPath id="572238b011"><path d="M 39.5 6.738281 C 30.765625 6.738281 23.6875 13.820312 23.6875 22.554688 C 23.6875 31.289062 30.765625 38.371094 39.5 38.371094 C 48.238281 38.371094 55.316406 31.289062 55.316406 22.554688 C 55.316406 13.820312 48.238281 6.738281 39.5 6.738281 Z M 39.5 6.738281 " clip-rule="nonzero"/></clipPath><clipPath id="e80fc4debb"><path d="M 25.089844 13.066406 L 53.929688 13.066406 L 53.929688 32.042969 L 25.089844 32.042969 Z M 25.089844 13.066406 " clip-rule="nonzero"/></clipPath><clipPath id="2abaa30f6d"><path d="M 39.5 13.066406 L 53.914062 22.554688 L 39.5 32.042969 L 25.089844 22.554688 Z M 39.5 13.066406 " clip-rule="nonzero"/></clipPath><clipPath id="989e759161"><path d="M 33.390625 16.445312 L 45.609375 16.445312 L 45.609375 28.664062 L 33.390625 28.664062 Z M 33.390625 16.445312 " clip-rule="nonzero"/></clipPath><clipPath id="96021360d4"><path d="M 39.5 16.445312 C 36.128906 16.445312 33.390625 19.179688 33.390625 22.554688 C 33.390625 25.929688 36.128906 28.664062 39.5 28.664062 C 42.875 28.664062 45.609375 25.929688 45.609375 22.554688 C 45.609375 19.179688 42.875 16.445312 39.5 16.445312 Z M 39.5 16.445312 " clip-rule="nonzero"/></clipPath><clipPath id="e25939b6dd"><path d="M 40.796875 16.445312 L 44.671875 16.445312 L 44.671875 20.320312 L 40.796875 20.320312 Z M 40.796875 16.445312 " clip-rule="nonzero"/></clipPath><clipPath id="20e5129e65"><path d="M 42.734375 16.445312 C 41.664062 16.445312 40.796875 17.3125 40.796875 18.382812 C 40.796875 19.453125 41.664062 20.320312 42.734375 20.320312 C 43.804688 20.320312 44.671875 19.453125 44.671875 18.382812 C 44.671875 17.3125 43.804688 16.445312 42.734375 16.445312 Z M 42.734375 16.445312 " clip-rule="nonzero"/></clipPath></defs><g clip-path="url(#c0329091ae)"><path fill="#ffffff" d="M 39.371094 0.410156 C 24.300781 0.410156 10.433594 7.28125 1.324219 19.253906 C -0.0976562 21.121094 -0.0976562 23.726562 1.324219 25.585938 C 10.433594 37.566406 24.300781 44.433594 39.371094 44.433594 C 54.441406 44.433594 68.308594 37.566406 77.417969 25.589844 C 78.839844 23.726562 78.839844 21.121094 77.417969 19.257812 C 68.308594 7.28125 54.441406 0.410156 39.371094 0.410156 Z M 73.269531 22.429688 C 65.152344 33.101562 52.796875 39.21875 39.371094 39.21875 C 25.945312 39.21875 13.589844 33.101562 5.472656 22.414062 C 13.589844 11.746094 25.945312 5.625 39.371094 5.625 C 52.796875 5.625 65.152344 11.746094 73.269531 22.414062 C 73.269531 22.414062 73.269531 22.429688 73.269531 22.429688 Z M 73.269531 22.429688 " fill-opacity="1" fill-rule="nonzero"/></g><path fill="#ffffff" d="M 39.371094 7.160156 C 30.953125 7.160156 24.109375 14.003906 24.109375 22.421875 C 24.109375 30.839844 30.953125 37.6875 39.371094 37.6875 C 47.789062 37.6875 54.632812 30.839844 54.632812 22.421875 C 54.632812 14.003906 47.789062 7.160156 39.371094 7.160156 Z M 39.371094 32.472656 C 33.832031 32.472656 29.324219 27.960938 29.324219 22.421875 C 29.324219 16.882812 33.832031 12.375 39.371094 12.375 C 44.910156 12.375 49.421875 16.882812 49.421875 22.421875 C 49.421875 27.960938 44.910156 32.472656 39.371094 32.472656 Z M 39.371094 32.472656 " fill-opacity="1" fill-rule="nonzero"/><g clip-path="url(#cf4c7cb166)"><g clip-path="url(#572238b011)"><path fill="#067837" d="M 23.6875 6.738281 L 55.316406 6.738281 L 55.316406 38.371094 L 23.6875 38.371094 Z M 23.6875 6.738281 " fill-opacity="1" fill-rule="nonzero"/></g></g><g clip-path="url(#e80fc4debb)"><g clip-path="url(#2abaa30f6d)"><path fill="#ffc72d" d="M 25.089844 13.066406 L 53.929688 13.066406 L 53.929688 32.042969 L 25.089844 32.042969 Z M 25.089844 13.066406 " fill-opacity="1" fill-rule="nonzero"/></g></g><g clip-path="url(#989e759161)"><g clip-path="url(#96021360d4)"><path fill="#0047ab" d="M 33.390625 16.445312 L 45.609375 16.445312 L 45.609375 28.664062 L 33.390625 28.664062 Z M 33.390625 16.445312 " fill-opacity="1" fill-rule="nonzero"/></g></g><g clip-path="url(#e25939b6dd)"><g clip-path="url(#20e5129e65)"><path fill="#ffffff" d="M 40.796875 16.445312 L 44.671875 16.445312 L 44.671875 20.320312 L 40.796875 20.320312 Z M 40.796875 16.445312 " fill-opacity="1" fill-rule="nonzero"/></g></g></svg>